HIERARCHY
ROOT Hips
{
	OFFSET 0.000000 0.000000 0.000000 
	CHANNELS 6 Xposition Yposition Zposition Zrotation Xrotation Yrotation
	JOINT Spine
	{
		OFFSET -0.000000 8.061080 0.000000 
		CHANNELS 3 Zrotation Xrotation Yrotation
		JOINT Spine1
		{
			OFFSET -0.000000 20.532677 0.000000 
			CHANNELS 3 Zrotation Xrotation Yrotation
			JOINT Neck
			{
				OFFSET -0.000000 22.498795 0.000000 
				CHANNELS 3 Zrotation Xrotation Yrotation
				JOINT Head
				{
					OFFSET -0.000000 15.237408 1.966117 
					CHANNELS 3 Zrotation Xrotation Yrotation
					End Site
					{
						OFFSET -0.000000 19.661171 0.000000 
					}
				}
			}
			JOINT LeftShoulder
			{
				OFFSET 3.894675 16.042269 -0.398189 
				CHANNELS 3 Zrotation Xrotation Yrotation
				JOINT LeftArm
				{
					OFFSET 19.709621 0.000000 0.000000 
					CHANNELS 3 Zrotation Xrotation Yrotation
					JOINT LeftForeArm
					{
						OFFSET 25.566900 0.000000 0.000000 
						CHANNELS 3 Zrotation Xrotation Yrotation
						JOINT LeftHand
						{
							OFFSET 25.401896 0.000000 0.000000 
							CHANNELS 3 Zrotation Xrotation Yrotation
							End Site
							{
								OFFSET 14.745877 0.000000 0.000000 
							}
						}
					}
				}
			}
			JOINT RightShoulder
			{
				OFFSET -3.930777 16.042269 -0.398189 
				CHANNELS 3 Zrotation Xrotation Yrotation
				JOINT RightArm
				{
					OFFSET -19.709621 0.000000 0.000000 
					CHANNELS 3 Zrotation Xrotation Yrotation
					JOINT RightForeArm
					{
						OFFSET -25.566900 0.000000 0.000000 
						CHANNELS 3 Zrotation Xrotation Yrotation
						JOINT RightHand
						{
							OFFSET -25.401896 0.000000 0.000000 
							CHANNELS 3 Zrotation Xrotation Yrotation
							End Site
							{
								OFFSET -14.745877 0.000000 0.000000 
							}
						}
					}
				}
			}
		}
	}
	JOINT LeftUpLeg
	{
		OFFSET 9.830585 0.000000 0.000000 
		CHANNELS 3 Zrotation Xrotation Yrotation
		JOINT LeftLeg
		{
			OFFSET -0.000000 -46.474842 0.000000 
			CHANNELS 3 Zrotation Xrotation Yrotation
			JOINT LeftFoot
			{
				OFFSET -0.000000 -30.290520 0.000000 
				CHANNELS 3 Zrotation Xrotation Yrotation
				JOINT LeftToeBase
				{
					OFFSET -0.000000 -6.389880 14.745877 
					CHANNELS 3 Zrotation Xrotation Yrotation
					End Site
					{
						OFFSET -0.000000 0.000000 3.932234 
					}
				}
			}
		}
	}
	JOINT RightUpLeg
	{
		OFFSET -9.830585 0.000000 0.000000 
		CHANNELS 3 Zrotation Xrotation Yrotation
		JOINT RightLeg
		{
			OFFSET -0.000000 -46.474842 0.000000 
			CHANNELS 3 Zrotation Xrotation Yrotation
			JOINT RightFoot
			{
				OFFSET -0.000000 -30.290520 0.000000 
				CHANNELS 3 Zrotation Xrotation Yrotation
				JOINT RightToeBase
				{
					OFFSET -0.000000 -6.389880 14.745877 
					CHANNELS 3 Zrotation Xrotation Yrotation
					End Site
					{
						OFFSET -0.000000 0.000000 3.932234 
					}
				}
			}
		}
	}
}
MOTION
Frames: 12
Frame Time: 0.010000
-5.043321 84.934357 12.391610 -6.970490 9.584551 54.808628 6.626991 -1.527391 2.455278 -2.456552 -1.586550 0.749259 5.280061 12.066049 12.766065 -18.002651 5.921474 17.635365 3.175205 10.721230 0.422398 -68.082939 26.676912 -25.043375 -12.369743 -0.277676 -10.524612 6.871304 -1.091993 5.482541 -8.463449 9.002713 -9.716735 51.701332 55.730701 39.786098 4.899921 -11.502321 11.145270 -9.845373 -12.492933 6.197738 4.241781 -13.386917 -3.083767 2.762829 2.427147 -6.947633 -8.004248 6.159667 0.844867 0.000000 0.000000 0.000000 -13.863111 -23.624527 13.037751 12.679460 10.013969 -12.660050 -3.334399 4.552672 -12.399296 0.000000 0.000000 0.000000 
-5.338657 84.995247 12.604365 -7.184766 9.549147 56.074612 6.630627 -1.558309 2.336282 -2.439104 -1.694170 0.706929 5.338890 12.005632 12.690447 -17.905684 6.160902 17.588396 3.095379 10.670639 0.534346 -68.154984 26.694597 -25.089155 -12.345920 -0.042318 -9.895980 7.164711 -0.845558 4.306263 -8.502885 9.021285 -9.692169 51.615219 55.789619 39.950527 4.771553 -11.700955 10.934458 -9.792521 -12.677034 6.315952 4.057739 -13.495583 -2.574690 2.789066 2.205857 -5.983173 -7.520186 6.721867 0.718333 0.000000 0.000000 0.000000 -13.951649 -23.397875 12.615044 12.610545 9.676709 -12.942660 -3.668731 4.750962 -12.370540 0.000000 0.000000 0.000000 
-5.610188 85.044289 12.824686 -7.393597 9.467930 57.269749 6.591292 -1.744210 2.302147 -2.304150 -1.562478 0.696697 5.395891 11.887085 12.568270 -17.828350 6.441898 17.500141 2.977911 10.772735 0.566171 -68.276711 26.266781 -25.120991 -12.311858 -0.193716 -10.185725 6.960318 -0.960534 5.498207 -8.532821 8.995617 -9.665102 51.810570 55.559319 39.742481 4.771157 -11.689425 10.867379 -9.878323 -12.662363 6.256131 3.901494 -13.473908 -1.977872 2.269124 1.705702 -3.834165 -5.857613 7.615202 0.069253 0.000000 0.000000 0.000000 -13.982979 -23.141254 12.245429 12.499580 9.363443 -13.215350 -3.913038 4.866903 -12.268038 0.000000 0.000000 0.000000 
-5.883624 85.081215 13.044269 -7.644484 9.316278 58.478134 6.637885 -1.846728 2.224592 -2.224397 -1.552519 0.669848 5.524995 11.943323 12.375943 -17.889915 6.464756 17.351475 3.019117 11.017937 0.600888 -68.224670 26.179296 -25.464977 -12.362577 -0.195891 -10.050275 7.043246 -0.944928 5.556243 -8.496019 8.584806 -9.808547 52.284451 55.441067 39.108585 5.007858 -11.585906 10.853312 -10.204903 -12.592134 6.186912 3.978786 -13.540778 -1.562778 2.097699 1.585167 -3.068897 -5.439520 7.811519 0.153881 0.000000 0.000000 0.000000 -13.748439 -22.947964 11.595904 12.044764 9.282256 -13.520690 -4.141572 4.966393 -11.930529 0.000000 0.000000 0.000000 
-6.119267 85.140114 13.251637 -7.780575 9.266960 59.614986 6.639377 -1.995687 2.187909 -2.233028 -1.574173 0.654400 6.435854 9.939683 13.310830 -18.442436 10.141949 19.090187 2.950951 10.993773 0.335149 -68.308968 26.277172 -25.229342 -12.067053 -0.563469 -10.151134 6.584977 -1.272549 6.365487 -8.727079 8.686598 -9.613635 53.044365 55.210236 38.573391 4.853751 -11.567818 10.747479 -10.019948 -12.551908 6.260938 3.705980 -13.539596 -0.886301 2.306113 1.401220 -2.257604 -5.075539 8.222401 0.035939 0.000000 0.000000 0.000000 -13.943357 -22.633400 11.474956 12.246380 8.778658 -13.772393 -4.592743 5.188394 -12.199321 0.000000 0.000000 0.000000 
-6.344847 85.182602 13.474772 -7.881897 9.133866 60.708298 6.596463 -2.022948 2.171887 -2.139123 -1.540242 0.650728 6.554394 10.051125 13.092720 -18.627863 10.058872 18.926666 2.870637 10.782842 0.234238 -68.393677 26.324873 -24.990623 -12.064240 -0.528177 -10.129072 6.580076 -1.223314 6.566928 -8.687394 9.226674 -9.612006 52.401501 54.923519 39.322865 4.784970 -11.644235 10.723114 -10.108352 -12.621828 6.218975 3.622658 -13.436368 -0.225640 2.882493 1.226362 -2.881585 -5.949544 8.374599 0.692223 0.000000 0.000000 0.000000 -13.951045 -22.276194 11.273164 12.143546 8.487723 -14.032895 -4.790104 5.216178 -12.185538 0.000000 0.000000 0.000000 
-6.562645 85.214775 13.673337 -8.146522 9.076444 61.776505 6.557996 -2.298009 2.194787 -2.059754 -1.454403 0.655956 6.444595 10.008745 12.952819 -18.300154 10.173001 18.704300 2.834053 10.675024 0.277437 -68.452667 26.383949 -24.924072 -12.052366 -0.545570 -10.123498 6.432208 -1.235565 6.779138 -8.699096 9.222211 -9.620553 52.588882 54.771225 39.092503 4.828907 -10.795575 11.096636 -10.646362 -11.651569 4.326145 3.566140 -13.456878 0.411034 2.810534 0.856277 -2.158507 -5.517693 8.788358 0.766330 0.000000 0.000000 0.000000 -13.950577 -22.135578 11.005810 12.096974 8.184546 -14.287313 -5.135192 5.336499 -12.247475 0.000000 0.000000 0.000000 
-6.803156 85.254639 13.818213 -8.323473 8.912735 63.008331 6.642203 -2.286980 2.016310 -2.122161 -1.569438 0.593123 6.295949 9.986276 12.812518 -17.826065 10.273980 18.439672 2.863955 10.612254 0.331918 -68.516838 26.469608 -24.877337 -12.083112 -0.251127 -9.899546 6.463289 -0.981520 5.661123 -8.637184 8.694948 -9.609452 53.162514 54.869064 38.238056 4.961800 -11.194135 10.879077 -10.529529 -12.151235 5.470620 3.494258 -13.449119 0.797733 2.795663 0.537818 -1.557396 -5.196669 9.238411 0.926870 0.000000 0.000000 0.000000 -13.941925 -21.884121 10.456044 11.962746 8.001575 -14.544147 -5.411194 5.477384 -12.214844 0.000000 0.000000 0.000000 
-6.991404 85.286148 14.014615 -8.408341 8.780518 64.020470 6.630809 -2.293554 2.073325 -2.127376 -1.592424 0.611647 6.457878 10.082627 12.557815 -17.947809 10.195098 18.234692 2.841694 10.712587 0.298197 -68.344162 26.605650 -25.092649 -12.120209 -0.194045 -9.772200 6.299954 -0.928920 5.539426 -8.632882 9.226424 -9.661583 52.701035 54.693031 38.795948 4.812888 -11.596149 10.886765 -10.335310 -12.573665 5.973540 3.421217 -13.244211 1.442319 2.636386 0.116940 -0.631968 -4.561384 9.668651 0.850460 0.000000 0.000000 0.000000 -13.961411 -21.561178 10.321374 11.982718 7.687736 -14.806108 -5.757493 5.575984 -12.364836 0.000000 0.000000 0.000000 
-7.180394 85.310310 14.192763 -8.551749 8.635169 65.052185 6.603710 -2.395853 2.059913 -2.059321 -1.581128 0.606540 6.120677 9.980073 12.461908 -17.261875 10.377493 17.934965 2.859882 10.687407 0.309321 -68.478157 26.526720 -24.933464 -12.151932 0.178744 -9.919599 6.160616 -0.568701 5.774860 -8.641670 9.281264 -9.657881 52.676117 54.629822 38.758083 4.846703 -11.613060 10.927026 -10.413264 -12.595144 5.926368 3.384473 -13.143282 2.058083 2.634219 -0.150849 -0.014606 -4.259105 9.909158 0.881503 0.000000 0.000000 0.000000 -13.943310 -21.325642 10.123886 12.048120 7.369995 -15.098251 -6.240371 5.810405 -12.588176 0.000000 0.000000 0.000000 
-7.357218 85.329361 14.362982 -8.662425 8.470178 66.046745 6.574643 -2.413570 2.065649 -2.014780 -1.636601 0.607990 6.123612 9.975399 12.269249 -17.082233 10.450559 17.709705 2.913098 10.819809 0.297933 -68.508026 26.556654 -24.994555 -12.121006 0.221724 -9.948222 5.931376 -0.546764 5.600712 -8.627769 9.364068 -9.676865 52.873108 54.377598 38.402237 4.988751 -11.449699 11.203609 -10.549566 -12.466337 5.946892 3.369042 -12.981905 2.680487 2.635585 -0.443323 0.570163 -4.002453 10.112571 0.903494 0.000000 0.000000 0.000000 -13.916706 -21.067116 9.964092 12.052140 7.154564 -15.374434 -6.543443 5.882668 -12.728781 0.000000 0.000000 0.000000 
-7.526562 85.351593 14.513129 -8.821553 8.327456 67.032593 6.553312 -2.233372 2.085246 -1.987907 -2.093447 0.610764 6.199979 9.995188 12.047212 -17.065956 10.672462 17.528965 2.889085 11.042682 0.430794 -68.396187 26.856651 -25.132936 -12.080212 0.322521 -9.978590 5.714810 -0.437736 5.969567 -8.677189 8.992004 -9.882126 52.677116 55.360645 38.568741 4.762638 -11.854687 10.697962 -10.277982 -12.828696 6.119057 3.420280 -12.909613 3.156936 2.544181 -0.620879 1.049846 -3.820581 10.213772 1.086892 0.000000 0.000000 0.000000 -13.819252 -20.920771 9.627396 11.868517 7.113129 -15.676149 -6.753287 5.916689 -12.685808 0.000000 0.000000 0.000000 
